<svg width="47" height="47" viewBox="0 0 47 47" fill="none" xmlns="http://www.w3.org/2000/svg">
<g clip-path="url(#clip0)">
<path d="M2.93742 3.19792C-0.755994 7.03429 -7.77245e-05 11.1096 -7.77245e-05 23.4902C-7.77245e-05 33.7714 -1.79391 44.0781 7.59434 46.5045C10.526 47.2585 36.5013 47.2585 39.429 46.5006C43.3378 45.492 46.5182 42.3215 46.9529 36.7931C47.0136 36.0215 47.0136 10.9725 46.951 10.1853C46.4888 4.29654 42.8639 0.90275 38.0875 0.215375C36.9928 0.0567503 36.7735 0.00975028 31.157 -4.1388e-05C11.2349 0.00975028 6.8678 -0.877375 2.93742 3.19792Z" fill="url(#paint0_linear)"/>
<path d="M23.4959 6.14712C16.3852 6.14712 9.63284 5.51458 7.05372 12.1337C5.98838 14.8676 6.14309 18.418 6.14309 23.5019C6.14309 27.963 6.00013 32.1557 7.05372 34.868C9.62697 41.4911 16.4341 40.8566 23.492 40.8566C30.3011 40.8566 37.3217 41.5655 39.9322 34.868C40.9995 32.1068 40.8428 28.6092 40.8428 23.5019C40.8428 16.7221 41.2168 12.3452 37.9288 9.05916C34.5996 5.72999 30.0974 6.14712 23.488 6.14712H23.4959ZM21.941 9.27458C36.7734 9.25108 38.6612 7.60216 37.6194 30.5088C37.2493 38.6104 31.0805 37.7213 23.4978 37.7213C9.67201 37.7213 9.27447 37.3257 9.27447 23.494C9.27447 9.50174 10.3711 9.28241 21.941 9.27066V9.27458ZM32.7588 12.1553C31.6093 12.1553 30.6771 13.0875 30.6771 14.237C30.6771 15.3865 31.6093 16.3187 32.7588 16.3187C33.9083 16.3187 34.8405 15.3865 34.8405 14.237C34.8405 13.0875 33.9083 12.1553 32.7588 12.1553ZM23.4959 14.5895C18.5746 14.5895 14.5855 18.5806 14.5855 23.5019C14.5855 28.4232 18.5746 32.4123 23.4959 32.4123C28.4172 32.4123 32.4043 28.4232 32.4043 23.5019C32.4043 18.5806 28.4172 14.5895 23.4959 14.5895ZM23.4959 17.717C31.1432 17.717 31.153 29.2868 23.4959 29.2868C15.8505 29.2868 15.8388 17.717 23.4959 17.717Z" fill="white"/>
</g>
<defs>
<linearGradient id="paint0_linear" x1="3.02755" y1="43.998" x2="46.7091" y2="6.19216" gradientUnits="userSpaceOnUse">
<stop stop-color="#FFDD55"/>
<stop offset="0.5" stop-color="#FF543E"/>
<stop offset="1" stop-color="#C837AB"/>
</linearGradient>
<clipPath id="clip0">
<rect width="47" height="47" fill="white"/>
</clipPath>
</defs>
</svg>
