<svg width="47" height="46" viewBox="0 0 47 46" fill="none" xmlns="http://www.w3.org/2000/svg">
<g clip-path="url(#clip0)">
<path d="M23.5 45.999C36.4787 45.999 47 35.7016 47 22.999C47 10.2965 36.4787 -0.000976562 23.5 -0.000976562C10.5213 -0.000976562 0 10.2965 0 22.999C0 35.7016 10.5213 45.999 23.5 45.999Z" fill="#007AB9"/>
<path d="M37.5411 24.8503V34.3327H31.9239V25.4857C31.9239 23.2644 31.1129 21.7474 29.0791 21.7474C27.527 21.7474 26.605 22.7687 26.1978 23.7576C26.05 24.111 26.0118 24.6018 26.0118 25.0975V34.3322H20.3943C20.3943 34.3322 20.4697 19.3485 20.3943 17.7975H26.0123V20.1406C26.001 20.1591 25.985 20.1771 25.975 20.1947H26.0123V20.1406C26.7588 19.0164 28.0901 17.4092 31.0748 17.4092C34.7704 17.4092 37.5411 19.7724 37.5411 24.8503ZM14.5178 9.82715C12.5963 9.82715 11.3391 11.0616 11.3391 12.6836C11.3391 14.2711 12.5598 15.5413 14.4441 15.5413H14.4805C16.4398 15.5413 17.6579 14.2711 17.6579 12.6836C17.6207 11.0616 16.4398 9.82715 14.5178 9.82715ZM11.673 34.3327H17.2885V17.7975H11.673V34.3327Z" fill="#F1F2F2"/>
</g>
<defs>
<clipPath id="clip0">
<rect width="47" height="46" fill="white"/>
</clipPath>
</defs>
</svg>
