<svg width="47" height="47" viewBox="0 0 47 47" fill="none" xmlns="http://www.w3.org/2000/svg">
<path d="M23.5059 0H23.4941C10.5368 0 0 10.5397 0 23.5C0 28.6406 1.65675 33.4053 4.47381 37.2739L1.54513 46.0042L10.5779 43.1166C14.2939 45.5783 18.7266 47 23.5059 47C36.4632 47 47 36.4573 47 23.5C47 10.5427 36.4632 0 23.5059 0Z" fill="#4CAF50"/>
<path d="M37.1799 33.1852C36.6129 34.7861 34.3628 36.1138 32.568 36.5016C31.3401 36.763 29.7362 36.9716 24.3371 34.7332C17.4311 31.8721 12.9837 24.8544 12.6371 24.3991C12.3051 23.9438 9.84644 20.6832 9.84644 17.3109C9.84644 13.9387 11.559 12.2966 12.2493 11.5916C12.8162 11.0129 13.7533 10.7485 14.6522 10.7485C14.943 10.7485 15.2044 10.7632 15.4394 10.775C16.1297 10.8043 16.4764 10.8455 16.9317 11.9353C17.4986 13.3012 18.8792 16.6735 19.0437 17.0201C19.2112 17.3667 19.3786 17.8367 19.1436 18.292C18.9233 18.762 18.7294 18.9706 18.3828 19.3701C18.0362 19.7696 17.7072 20.0751 17.3606 20.504C17.0433 20.877 16.6849 21.2765 17.0844 21.9668C17.4839 22.6425 18.8646 24.8955 20.8973 26.705C23.5205 29.0403 25.6472 29.7865 26.4081 30.1037C26.975 30.3387 27.6506 30.2829 28.0648 29.8423C28.5906 29.2753 29.2398 28.3353 29.9007 27.41C30.3707 26.7462 30.9641 26.6639 31.5869 26.8989C32.2214 27.1192 35.5789 28.7789 36.2692 29.1226C36.9596 29.4692 37.4149 29.6337 37.5823 29.9245C37.7468 30.2153 37.7468 31.5813 37.1799 33.1852Z" fill="#FAFAFA"/>
</svg>
