<svg width="89" height="90" viewBox="0 0 89 90" fill="none" xmlns="http://www.w3.org/2000/svg">
<g clip-path="url(#clip0)">
<path d="M55.7652 17.2037V59.7951C55.7652 61.4858 54.0246 62.5463 52.6245 61.7088C45.2077 57.2724 38.1044 53.9076 31.317 51.611L30.2979 51.2768C30.2792 52.9083 30.324 54.5349 30.4321 56.1568C30.5216 57.4989 30.6328 58.522 30.7986 59.5709C30.9363 60.4421 31.0652 61.1087 31.465 63.0696C32.201 66.6788 29.5812 70.0215 25.8583 70.6837C25.6043 70.7288 25.348 70.7609 25.0907 70.7798C21.3509 71.0541 17.9971 68.5166 17.7548 64.8815C17.7369 64.6132 17.7371 64.3439 17.7553 64.0752C17.8911 62.0753 17.9303 61.396 17.9511 60.5132C17.9761 59.4503 17.9505 58.421 17.861 57.0788C17.6779 54.333 17.3132 51.6002 16.7666 48.8796C16.7115 48.6055 16.7076 48.3326 16.7481 48.0717C14.5615 47.7371 12.3457 47.4815 10.1018 47.3053C9.00573 47.2192 8.15833 46.2613 8.15833 45.1084V31.8904C8.15833 30.7192 9.03197 29.7528 10.147 29.6905C16.8908 29.3139 23.947 27.8814 31.317 25.3878C38.7053 22.8879 45.7972 19.5285 52.5951 15.3079C53.9951 14.4386 55.7652 15.4972 55.7652 17.2037ZM21.0374 48.812L21.1163 49.2227C21.5712 51.7279 21.8829 54.2443 22.0514 56.7715C22.1498 58.2473 22.1789 59.4147 22.1504 60.6219C22.1275 61.5981 22.0859 62.3163 21.9453 64.388C21.9411 64.4504 21.9411 64.5125 21.9452 64.5742C22.0126 65.5864 23.2204 66.5002 24.7977 66.3845C24.9179 66.3757 25.0376 66.3607 25.156 66.3396C26.6772 66.0691 27.5531 64.9514 27.3573 63.9911C26.9431 61.9597 26.8068 61.2548 26.6545 60.2916C26.4662 59.1002 26.3401 57.9399 26.2417 56.4641C26.0994 54.3297 26.0594 52.1878 26.1215 50.0389C24.4489 49.5878 22.7554 49.188 21.0443 48.8384L21.0374 48.812ZM64.8236 49.3017L64.9803 49.4562L72.7442 57.9256C73.5482 58.8026 73.5221 60.1972 72.6859 61.0405C71.902 61.8311 70.6845 61.8564 69.8729 61.1339L69.7162 60.9794L61.9523 52.51C61.1484 51.633 61.1744 50.2384 62.0106 49.3951C62.7945 48.6045 64.0121 48.5791 64.8236 49.3017ZM51.5646 20.9958C45.4705 24.5047 39.1507 27.3668 32.6066 29.581C28.3345 31.0264 24.1523 32.1331 20.0601 32.9L20.0621 44.1674C24.3447 44.9539 28.5265 46.0373 32.6066 47.4178C38.7097 49.4828 45.0285 52.3625 51.5646 56.0547V20.9958ZM15.8605 33.572C14.6856 33.7272 13.5185 33.8536 12.3589 33.9511V43.0839C13.5335 43.2 14.7009 43.3373 15.8611 43.4957L15.8605 33.572ZM78.8685 35.5621C80.0285 35.5621 80.9688 36.5484 80.9688 37.7651C80.9688 38.9817 80.0285 39.9681 78.8685 39.9681H67.6669C66.507 39.9681 65.5666 38.9817 65.5666 37.7651C65.5666 36.5484 66.507 35.5621 67.6669 35.5621H78.8685ZM72.6859 15.6157C73.5221 16.459 73.5482 17.8536 72.7442 18.7306L64.9803 27.2C64.1763 28.077 62.8467 28.1044 62.0106 27.2611C61.1744 26.4178 61.1484 25.0232 61.9523 24.1462L69.7162 15.6768C70.5202 14.7997 71.8498 14.7724 72.6859 15.6157Z" fill="white"/>
</g>
<defs>
<clipPath id="clip0">
<rect width="89" height="90" fill="white"/>
</clipPath>
</defs>
</svg>
