<svg width="88" height="109" viewBox="0 0 88 109" fill="none" xmlns="http://www.w3.org/2000/svg">
<path d="M13.288 29.3865C16.3985 29.3865 18.92 26.8878 18.92 23.8057C18.92 20.7235 16.3985 18.2249 13.288 18.2249C10.1775 18.2249 7.65601 20.7235 7.65601 23.8057C7.65601 26.8878 10.1775 29.3865 13.288 29.3865Z" fill="white"/>
<path d="M19.272 54.5H11.792C9.85602 54.5 8.18402 53.1048 7.92002 51.1864L5.63202 36.8856C5.45602 35.9264 4.57602 35.316 3.69602 35.4904C2.72802 35.6648 2.11202 36.5368 2.28802 37.4088L4.57602 51.7096C5.10402 55.2848 8.18402 57.9008 11.88 57.9008H19.36C20.328 57.9008 21.032 57.116 21.032 56.244C20.944 55.2848 20.24 54.5 19.272 54.5Z" fill="white"/>
<path d="M29.656 40.0249C30.8 40.0249 31.768 39.0657 31.768 37.9321C31.768 36.7985 30.8 35.8393 29.656 35.8393H24.992C23.496 35.8393 22.088 35.4033 20.856 34.6185L16.544 31.8281C15.752 31.3049 14.784 30.9561 13.728 30.9561H12.936C11.44 30.9561 10.032 31.5665 9.06404 32.7001C8.09604 33.8337 7.65604 35.3161 7.83204 36.7985L9.94404 50.3145C10.12 51.5353 11.176 52.4945 12.496 52.4945H22.616L25.168 66.6209C25.432 67.8417 26.488 68.7137 27.72 68.7137C27.896 68.7137 27.984 68.7137 28.16 68.7137C29.568 68.4521 30.448 67.1441 30.272 65.7489L27.28 49.4425C27.016 48.2217 25.96 47.3497 24.728 47.3497H19.536L18.92 38.3681C20.768 39.5017 22.88 40.1121 24.992 40.1121H29.656V40.0249Z" fill="white"/>
<path d="M74.712 29.3865C77.8225 29.3865 80.344 26.8878 80.344 23.8057C80.344 20.7235 77.8225 18.2249 74.712 18.2249C71.6016 18.2249 69.08 20.7235 69.08 23.8057C69.08 26.8878 71.6016 29.3865 74.712 29.3865Z" fill="white"/>
<path d="M84.392 35.4905C83.424 35.3161 82.544 36.0137 82.456 36.8857L80.168 51.1865C79.904 53.1049 78.232 54.5001 76.296 54.5001H68.816C67.848 54.5001 67.144 55.2849 67.144 56.1569C67.144 57.1161 67.936 57.8137 68.816 57.8137H76.296C79.904 57.8137 82.984 55.1977 83.6 51.6225L85.888 37.3217C85.888 36.5369 85.272 35.6649 84.392 35.4905Z" fill="white"/>
<path d="M79.024 32.6129C78.056 31.4793 76.648 30.8689 75.152 30.8689H74.36C73.304 30.8689 72.336 31.2177 71.544 31.7409L67.232 34.5313C66 35.3161 64.504 35.7521 63.096 35.7521H58.432C57.288 35.7521 56.32 36.7113 56.32 37.8449C56.32 38.9785 57.288 39.9377 58.432 39.9377H63.096C65.296 39.9377 67.32 39.3273 69.168 38.1937L68.552 47.1753H63.36C62.128 47.1753 61.072 48.0473 60.808 49.2681L57.816 65.4873C57.552 66.8825 58.52 68.1905 59.928 68.4521C60.104 68.4521 60.28 68.4521 60.368 68.4521C61.6 68.4521 62.656 67.5801 62.92 66.3593L65.472 52.2329H75.592C76.824 52.2329 77.968 51.2737 78.144 50.0529L80.256 36.4497C80.432 35.2289 79.992 33.7465 79.024 32.6129Z" fill="white"/>
<path d="M44 29.3865C47.1105 29.3865 49.632 26.8878 49.632 23.8057C49.632 20.7235 47.1105 18.2249 44 18.2249C40.8896 18.2249 38.368 20.7235 38.368 23.8057C38.368 26.8878 40.8896 29.3865 44 29.3865Z" fill="white"/>
<path d="M50.5121 34.7929C49.8081 32.4385 47.6081 30.7817 45.0561 30.7817H42.7681C40.3041 30.7817 38.0161 32.4385 37.4001 34.7929L35.9041 40.0249H52.0081L50.5121 34.7929Z" fill="white"/>
<path d="M63.448 45.4313C64.416 45.4313 65.12 44.6465 65.12 43.7745C65.12 42.9025 64.328 42.1177 63.448 42.1177H24.552C23.584 42.1177 22.88 42.9025 22.88 43.7745C22.88 44.6465 23.672 45.4313 24.552 45.4313H33.176V67.3185C33.176 68.2777 33.968 68.9753 34.848 68.9753H53.152C54.12 68.9753 54.824 68.1905 54.824 67.3185V45.4313H63.448Z" fill="white"/>
</svg>
