<svg width="74" height="80" viewBox="0 0 74 80" fill="none" xmlns="http://www.w3.org/2000/svg">
<path d="M70.078 22.08H61.124L59.644 12.928C59.496 11.968 58.46 11.264 57.35 11.392L48.544 12.48L45.584 3.64802C45.288 2.68802 44.104 2.17602 43.068 2.43202L3.33001 12.224C2.22001 12.48 1.62801 13.504 1.92401 14.464L13.394 49.088C13.542 49.536 13.912 49.92 14.356 50.176C14.652 50.304 15.022 50.432 15.392 50.432C15.614 50.432 15.762 50.432 15.984 50.368L19.758 49.472L20.498 54.144C20.572 54.592 20.868 55.04 21.312 55.296C21.682 55.552 22.126 55.68 22.57 55.68C22.644 55.68 22.792 55.68 22.866 55.68L26.788 55.232V60.032C26.788 60.992 27.676 61.824 28.86 61.824H70.152C71.262 61.824 72.224 61.056 72.224 60.032V23.872C72.15 22.848 71.262 22.08 70.078 22.08ZM14.356 39.04L6.43801 15.168L42.18 6.33602L44.4 12.992L16.428 16.384C15.91 16.448 15.392 16.704 15.096 17.088C14.8 17.472 14.652 17.92 14.726 18.432L17.908 38.208L14.356 39.04ZM23.014 44.224L19.018 19.648L55.87 15.168L56.98 22.08H28.786C27.676 22.08 26.714 22.848 26.714 23.872V43.776L23.014 44.224ZM68.006 50.432H30.858V25.6H68.08V50.432H68.006Z" fill="white"/>
<path d="M36.408 46.8479H62.308C62.974 46.8479 63.418 46.1439 62.974 45.6959L56.536 37.8879C56.24 37.5039 55.648 37.4399 55.278 37.7599L52.984 39.6799C52.614 39.9999 52.022 39.9359 51.726 39.6159L46.176 33.1519C45.806 32.7039 45.066 32.7679 44.77 33.2159L35.668 45.7599C35.372 46.2079 35.742 46.8479 36.408 46.8479Z" fill="white"/>
<path d="M57.868 34.6881C59.6254 34.6881 61.05 33.456 61.05 31.9361C61.05 30.4162 59.6254 29.1841 57.868 29.1841C56.1106 29.1841 54.686 30.4162 54.686 31.9361C54.686 33.456 56.1106 34.6881 57.868 34.6881Z" fill="white"/>
</svg>
