<svg width="38" height="48" viewBox="0 0 38 48" fill="none" xmlns="http://www.w3.org/2000/svg">
<path fill-rule="evenodd" clip-rule="evenodd" d="M11.5255 0.922852H26.4745C27.958 0.922852 29.0991 2.076 29.0991 3.5751V34.9409C29.0991 36.3247 27.958 37.4778 26.4745 37.4778H11.5255C10.1562 37.4778 9.01501 36.3247 9.01501 34.9409V3.5751C9.01501 2.076 10.1562 0.922852 11.5255 0.922852ZM19.0571 33.4418C19.7417 33.4418 20.3123 34.0183 20.3123 34.8256C20.3123 35.5174 19.7417 36.094 19.0571 36.094C18.2583 36.094 17.6877 35.5174 17.6877 34.8256C17.6877 34.0183 18.2583 33.4418 19.0571 33.4418ZM17.3453 4.03637H20.7688C21.1111 4.03637 21.1111 3.34447 20.7688 3.34447H17.3453C16.8889 3.34447 16.8889 4.03637 17.3453 4.03637ZM10.4985 6.45799H27.5015V32.4039H10.4985V6.45799Z" fill="#342F2F"/>
</svg>
