<svg width="42" height="52" viewBox="0 0 42 52" fill="none" xmlns="http://www.w3.org/2000/svg">
<path d="M38.5 37.5869H22.3125H19.6875H3.5C3.13688 37.5869 2.84375 37.8772 2.84375 38.2369C2.84375 38.5966 3.13688 38.8869 3.5 38.8869H19.6875H22.3125H38.5C38.8631 38.8869 39.1562 38.5966 39.1562 38.2369C39.1562 37.8772 38.8631 37.5869 38.5 37.5869Z" fill="black"/>
<path d="M32.3662 32.4001H38.5C38.8631 32.4001 39.1562 32.1098 39.1562 31.7501C39.1562 31.3905 38.8631 31.1001 38.5 31.1001H33.0225V13.1168C33.0225 12.7571 32.7293 12.4668 32.3662 12.4668C32.0031 12.4668 31.71 12.7571 31.71 13.1168V31.7501C31.71 32.1098 32.0031 32.4001 32.3662 32.4001Z" fill="black"/>
<path d="M3.5 32.4001H9.63375C9.99688 32.4001 10.29 32.1098 10.29 31.7501V13.1168C10.29 12.7571 9.99688 12.4668 9.63375 12.4668C9.27063 12.4668 8.9775 12.7571 8.9775 13.1168V31.1001H3.5C3.13688 31.1001 2.84375 31.3905 2.84375 31.7501C2.84375 32.1098 3.13688 32.4001 3.5 32.4001Z" fill="black"/>
<path d="M16.1788 32.4001H19.6875H22.3125H25.8169C26.18 32.4001 26.4731 32.1098 26.4731 31.7501V13.1168C26.4731 12.7571 26.18 12.4668 25.8169 12.4668C25.4538 12.4668 25.1606 12.7571 25.1606 13.1168V31.1001H22.3125H19.6875H16.8394V13.1168C16.8394 12.7571 16.5463 12.4668 16.1832 12.4668C15.82 12.4668 15.5269 12.7571 15.5269 13.1168V31.7501C15.5225 32.1098 15.82 32.4001 16.1788 32.4001Z" fill="black"/>
<path d="M20.9125 17.4718C21.1181 17.4718 21.3106 17.3765 21.4375 17.2161C21.9363 16.5661 26.3025 10.7811 26.3025 8.05113C26.3025 5.1088 23.8875 2.7168 20.9169 2.7168C17.9463 2.7168 15.5312 5.1088 15.5312 8.05113C15.5312 10.7768 19.8975 16.5661 20.3963 17.2161C20.51 17.3765 20.7069 17.4718 20.9125 17.4718ZM20.9125 4.01246C23.1613 4.01246 24.9856 5.8238 24.9856 8.0468C24.9856 9.7628 22.3956 13.6801 20.9125 15.7211C19.425 13.6758 16.8394 9.7628 16.8394 8.0468C16.835 5.8238 18.6638 4.01246 20.9125 4.01246Z" fill="black"/>
<path d="M23.4062 8.27176C23.4062 6.90676 22.2862 5.80176 20.9125 5.80176C19.5387 5.80176 18.4187 6.91109 18.4187 8.27176C18.4187 9.63242 19.5387 10.7418 20.9125 10.7418C22.2862 10.7418 23.4062 9.63242 23.4062 8.27176ZM19.7268 8.27176C19.7268 7.62609 20.2562 7.10176 20.9081 7.10176C21.56 7.10176 22.0893 7.62609 22.0893 8.27176C22.0893 8.91742 21.56 9.44176 20.9081 9.44176C20.2606 9.44176 19.7268 8.91742 19.7268 8.27176Z" fill="black"/>
<path d="M9.63371 34.2246H5.70496C5.34183 34.2246 5.04871 34.5149 5.04871 34.8746C5.04871 35.2343 5.34183 35.5246 5.70496 35.5246H9.63371C9.99683 35.5246 10.29 35.2343 10.29 34.8746C10.29 34.5149 9.99683 34.2246 9.63371 34.2246Z" fill="black"/>
<path d="M14.3632 35.5246H18.2919C18.655 35.5246 18.9482 35.2343 18.9482 34.8746C18.9482 34.5149 18.655 34.2246 18.2919 34.2246H14.3632C14 34.2246 13.7069 34.5149 13.7069 34.8746C13.7069 35.2343 14.0044 35.5246 14.3632 35.5246Z" fill="black"/>
<path d="M22.3694 34.8746C22.3694 35.2343 22.6625 35.5246 23.0256 35.5246H26.9544C27.3175 35.5246 27.6106 35.2343 27.6106 34.8746C27.6106 34.5149 27.3175 34.2246 26.9544 34.2246H23.0256C22.6625 34.2246 22.3694 34.5193 22.3694 34.8746Z" fill="black"/>
<path d="M31.6881 35.5246H35.6169C35.98 35.5246 36.2731 35.2343 36.2731 34.8746C36.2731 34.5149 35.98 34.2246 35.6169 34.2246H31.6881C31.325 34.2246 31.0319 34.5149 31.0319 34.8746C31.0319 35.2343 31.325 35.5246 31.6881 35.5246Z" fill="black"/>
<path d="M29.0938 19.1965C29.4569 19.1965 29.75 18.9061 29.75 18.5465V14.7418C29.75 14.3821 29.4569 14.0918 29.0938 14.0918C28.7306 14.0918 28.4375 14.3865 28.4375 14.7461V18.5508C28.4375 18.9061 28.7306 19.1965 29.0938 19.1965Z" fill="black"/>
<path d="M29.0413 28.7648C29.4044 28.7648 29.6975 28.4745 29.6975 28.1148V24.3102C29.6975 23.9505 29.4044 23.6602 29.0413 23.6602C28.6781 23.6602 28.385 23.9505 28.385 24.3102V28.1148C28.385 28.4745 28.6781 28.7648 29.0413 28.7648Z" fill="black"/>
<path d="M12.9062 18.4513C13.2694 18.4513 13.5625 18.161 13.5625 17.8013V13.9967C13.5625 13.637 13.2694 13.3467 12.9062 13.3467C12.5431 13.3467 12.25 13.637 12.25 13.9967V17.8013C12.25 18.161 12.5431 18.4513 12.9062 18.4513Z" fill="black"/>
<path d="M12.9062 28.34C13.2694 28.34 13.5625 28.0497 13.5625 27.69V23.8854C13.5625 23.5257 13.2694 23.2354 12.9062 23.2354C12.5431 23.2354 12.25 23.5257 12.25 23.8854V27.69C12.25 28.0497 12.5431 28.34 12.9062 28.34Z" fill="black"/>
</svg>
