<svg width="31" height="30" viewBox="0 0 31 30" fill="none" xmlns="http://www.w3.org/2000/svg">
<g clip-path="url(#clip0)">
<path d="M0 4.81859L12.4412 11.6504C14.3931 12.723 16.6069 12.723 18.5588 11.6504L31 4.81859V2.04191C31 0.91977 30.0906 0 28.9811 0H2.01886C0.909391 0 0 0.91977 0 2.04191V4.81859H0Z" fill="black"/>
<path d="M0.0034349 22.0785L8.42496 11.4147L0 6.78809V21.9578L0.0034349 22.0785Z" fill="black"/>
<path d="M22.5751 11.4147L30.9966 22.0785L31 21.9578V6.78809L22.5751 11.4147Z" fill="black"/>
<path d="M30.0657 23.6777L21.0448 12.2549L19.378 13.1703C16.9023 14.5304 14.0977 14.5304 11.622 13.1703L9.95524 12.2549L0.934326 23.6777C1.24776 23.881 1.62131 24 2.0189 24H28.9812C29.3788 24 29.7523 23.881 30.0657 23.6777Z" fill="black"/>
</g>
<defs>
<clipPath id="clip0">
<rect width="31" height="30" fill="white"/>
</clipPath>
</defs>
</svg>
