<svg width="47" height="58" viewBox="0 0 47 58" fill="none" xmlns="http://www.w3.org/2000/svg">
<path d="M40.6201 7.44046H32.2299V1.45921C32.2299 0.752334 31.6516 0.181396 30.9355 0.181396H5.15898C2.41426 0.181396 0.183594 2.38358 0.183594 5.09327V40.1017C0.183594 43.473 2.96504 46.2189 6.37988 46.2189H40.6201C44.035 46.2189 46.8164 43.473 46.8164 40.1017V13.5576C46.8164 10.1864 44.035 7.44046 40.6201 7.44046ZM5.15898 2.73702H29.6412V7.44046H5.15898C3.84629 7.44046 2.77227 6.38921 2.77227 5.09327C2.77227 3.79733 3.84629 2.73702 5.15898 2.73702ZM44.2277 40.1017C44.2277 42.0683 42.6121 43.6633 40.6201 43.6633H6.37988C4.38789 43.6633 2.77227 42.0683 2.77227 40.1017V9.39796C3.4791 9.77858 4.29609 9.99608 5.15898 9.99608H40.6201C42.6121 9.99608 44.2277 11.5911 44.2277 13.5576V40.1017Z" fill="#363232"/>
<path d="M40.6293 12.2798H30.8438C30.1828 12.2798 29.5494 12.8417 29.5494 13.5576V21.8679C29.5494 22.5748 30.1278 23.1457 30.8438 23.1457H40.6293C41.3453 23.1457 41.9237 22.5748 41.9237 21.8679V13.5667C41.9237 12.8507 41.3453 12.2798 40.6293 12.2798ZM39.3258 20.5901H32.1289V14.8445H39.3258V20.5901Z" fill="#363232"/>
<path d="M40.6293 26.6531H6.38906C5.67305 26.6531 5.09473 27.224 5.09473 27.9309C5.09473 28.6378 5.67305 29.2087 6.38906 29.2087H40.6293C41.3453 29.2087 41.9236 28.6378 41.9236 27.9309C41.9236 27.224 41.3453 26.6531 40.6293 26.6531Z" fill="#363232"/>
<path d="M6.38906 23.1457H23.5092C24.2252 23.1457 24.8035 22.5748 24.8035 21.8679C24.8035 21.161 24.2252 20.5901 23.5092 20.5901H6.38906C5.67305 20.5901 5.09473 21.161 5.09473 21.8679C5.09473 22.5748 5.67305 23.1457 6.38906 23.1457Z" fill="#363232"/>
<path d="M40.6293 32.7158H6.38906C5.67305 32.7158 5.09473 33.2868 5.09473 33.9936C5.09473 34.7005 5.67305 35.2714 6.38906 35.2714H40.6293C41.3453 35.2714 41.9236 34.7005 41.9236 33.9936C41.9236 33.2868 41.3453 32.7158 40.6293 32.7158Z" fill="#363232"/>
<path d="M40.6293 38.7786H6.38906C5.67305 38.7786 5.09473 39.3495 5.09473 40.0564C5.09473 40.7632 5.67305 41.3342 6.38906 41.3342H40.6293C41.3453 41.3342 41.9236 40.7632 41.9236 40.0564C41.9236 39.3495 41.3453 38.7786 40.6293 38.7786Z" fill="#433E3E"/>
<path d="M6.42577 14.5907L8.83085 17.7082H9.95995V12.7329H8.83085V15.932L6.35233 12.7329H5.30585V17.7082H6.42577V14.5907Z" fill="#363232"/>
<path d="M14.917 16.7295H12.3283V15.6963H14.5865V14.7448H12.3283V13.7207H14.8344V12.7329H11.1992V17.7082H14.917V16.7295Z" fill="#363232"/>
<path d="M17.8729 17.7082L18.9744 14.2463L20.076 17.7082H20.9114L22.6739 12.7329H21.453L20.4524 15.5967L19.5619 12.7329H18.3869L17.4873 15.5967L16.4959 12.7329H15.275L17.0375 17.7082H17.8729Z" fill="#363232"/>
<path d="M25.0514 16.784C24.5924 16.784 24.0875 16.5484 23.5459 16.0771L22.8758 16.8927C23.5184 17.4727 24.2344 17.7718 25.033 17.7718C26.1254 17.7718 26.8781 17.1465 26.8781 16.2674C26.9149 15.4065 26.3182 14.9534 25.3635 14.7268C24.675 14.5455 24.2711 14.4277 24.2528 14.0743C24.2895 13.7934 24.4455 13.594 24.8586 13.594C25.3268 13.594 25.7766 13.7571 26.2172 14.0834L26.7863 13.2677C26.2723 12.878 25.6664 12.6243 24.8953 12.6152C23.7754 12.6787 23.1236 13.1318 23.0869 14.0924C23.0869 14.9987 23.6285 15.4155 24.7852 15.6693C25.2809 15.7871 25.749 15.923 25.7123 16.2946C25.7307 16.6118 25.3635 16.8021 25.0514 16.784Z" fill="#363232"/>
</svg>
