<svg width="61" height="75" viewBox="0 0 61 75" fill="none" xmlns="http://www.w3.org/2000/svg">
<path d="M9.21101 20.22C11.3671 20.22 13.115 18.5008 13.115 16.38C13.115 14.2593 11.3671 12.54 9.21101 12.54C7.05489 12.54 5.30701 14.2593 5.30701 16.38C5.30701 18.5008 7.05489 20.22 9.21101 20.22Z" fill="black"/>
<path d="M13.359 37.4998H8.17402C6.83202 37.4998 5.67302 36.5398 5.49002 35.2198L3.90402 25.3798C3.78202 24.7198 3.17202 24.2998 2.56202 24.4198C1.89102 24.5398 1.46402 25.1398 1.58602 25.7398L3.17202 35.5798C3.53802 38.0398 5.67302 39.8398 8.23502 39.8398H13.42C14.091 39.8398 14.579 39.2998 14.579 38.6998C14.518 38.0398 14.03 37.4998 13.359 37.4998Z" fill="black"/>
<path d="M20.557 27.5398C21.35 27.5398 22.021 26.8798 22.021 26.0998C22.021 25.3198 21.35 24.6598 20.557 24.6598H17.324C16.287 24.6598 15.311 24.3598 14.457 23.8198L11.468 21.8998C10.919 21.5398 10.248 21.2998 9.51603 21.2998H8.96703C7.93003 21.2998 6.95403 21.7198 6.28303 22.4998C5.61203 23.2798 5.30703 24.2998 5.42903 25.3198L6.89303 34.6198C7.01503 35.4598 7.74703 36.1198 8.66203 36.1198H15.677L17.446 45.8398C17.629 46.6798 18.361 47.2798 19.215 47.2798C19.337 47.2798 19.398 47.2798 19.52 47.2798C20.496 47.0998 21.106 46.1998 20.984 45.2398L18.91 34.0198C18.727 33.1798 17.995 32.5798 17.141 32.5798H13.542L13.115 26.3998C14.396 27.1798 15.86 27.5998 17.324 27.5998H20.557V27.5398Z" fill="black"/>
<path d="M51.789 20.22C53.9451 20.22 55.693 18.5008 55.693 16.38C55.693 14.2593 53.9451 12.54 51.789 12.54C49.6329 12.54 47.885 14.2593 47.885 16.38C47.885 18.5008 49.6329 20.22 51.789 20.22Z" fill="black"/>
<path d="M58.499 24.4199C57.828 24.2999 57.218 24.7799 57.157 25.3799L55.571 35.2199C55.388 36.5399 54.229 37.4999 52.887 37.4999H47.702C47.031 37.4999 46.543 38.0399 46.543 38.6399C46.543 39.2999 47.092 39.7799 47.702 39.7799H52.887C55.388 39.7799 57.523 37.9799 57.95 35.5199L59.536 25.6799C59.536 25.1399 59.109 24.5399 58.499 24.4199Z" fill="black"/>
<path d="M54.778 22.4402C54.107 21.6602 53.131 21.2402 52.094 21.2402H51.545C50.813 21.2402 50.142 21.4802 49.593 21.8402L46.604 23.7602C45.75 24.3002 44.713 24.6002 43.737 24.6002H40.504C39.711 24.6002 39.04 25.2602 39.04 26.0402C39.04 26.8202 39.711 27.4802 40.504 27.4802H43.737C45.262 27.4802 46.665 27.0602 47.946 26.2802L47.519 32.4602H43.92C43.066 32.4602 42.334 33.0602 42.151 33.9002L40.077 45.0602C39.894 46.0202 40.565 46.9202 41.541 47.1002C41.663 47.1002 41.785 47.1002 41.846 47.1002C42.7 47.1002 43.432 46.5002 43.615 45.6602L45.384 35.9402H52.399C53.253 35.9402 54.046 35.2802 54.168 34.4402L55.632 25.0802C55.754 24.2402 55.449 23.2202 54.778 22.4402Z" fill="black"/>
<path d="M30.5 20.22C32.6561 20.22 34.404 18.5008 34.404 16.38C34.404 14.2593 32.6561 12.54 30.5 12.54C28.3439 12.54 26.596 14.2593 26.596 16.38C26.596 18.5008 28.3439 20.22 30.5 20.22Z" fill="black"/>
<path d="M35.014 23.9402C34.526 22.3202 33.001 21.1802 31.232 21.1802H29.646C27.938 21.1802 26.352 22.3202 25.925 23.9402L24.888 27.5402H36.051L35.014 23.9402Z" fill="black"/>
<path d="M43.981 31.26C44.652 31.26 45.14 30.72 45.14 30.12C45.14 29.52 44.591 28.98 43.981 28.98H17.019C16.348 28.98 15.86 29.52 15.86 30.12C15.86 30.72 16.409 31.26 17.019 31.26H22.997V46.32C22.997 46.98 23.546 47.46 24.156 47.46H36.844C37.515 47.46 38.003 46.92 38.003 46.32V31.26H43.981Z" fill="black"/>
</svg>
