<svg width="41" height="52" viewBox="0 0 41 52" fill="none" xmlns="http://www.w3.org/2000/svg">
<path d="M31.8569 30.6593L24.2719 23.0049C25.4609 21.5073 26.1169 19.6353 26.1169 17.7217C26.1169 13.0625 22.3859 9.27686 17.7939 9.27686C13.2019 9.27686 9.42993 13.0625 9.42993 17.7217C9.42993 22.3809 13.1609 26.1665 17.7529 26.1665C19.6799 26.1665 21.5659 25.5009 23.0419 24.2529L30.6269 31.9489C30.7089 32.0321 30.8319 32.0737 30.9139 32.0737C30.9959 32.0737 31.1189 32.0321 31.2009 31.9489L31.8569 31.2833C31.9389 31.2001 31.9799 31.1169 31.9799 30.9921C31.9799 30.8673 31.9389 30.7425 31.8569 30.6593ZM24.3539 17.7217C24.3539 21.4241 21.4019 24.4193 17.7529 24.4193C14.1039 24.4193 11.1519 21.4241 11.1519 17.7217C11.1519 14.0193 14.1039 11.0241 17.7529 11.0241C21.4019 11.0241 24.3539 14.0193 24.3539 17.7217Z" fill="#494141"/>
</svg>
