<svg width="76" height="72" viewBox="0 0 76 72" fill="none" xmlns="http://www.w3.org/2000/svg">
<path d="M67.3092 0.575928H2.08901C1.46589 0.575928 0.912003 0.995716 0.912003 1.46798V15.1111C0.912003 15.5833 1.46589 16.0031 2.08901 16.0031H67.3092C67.9323 16.0031 68.4862 15.5833 68.4862 15.1111V1.46798C68.4862 0.995716 67.9323 0.575928 67.3092 0.575928ZM66.1322 14.219H3.26602V2.36003H66.1322V14.219Z" fill="white"/>
<path d="M20.0903 36.5728H2.08901C1.46589 36.5728 0.912003 36.9925 0.912003 37.4648V51.1079C0.912003 51.5802 1.46589 52 2.08901 52H20.0903C20.7134 52 21.2673 51.5802 21.2673 51.1079V37.4648C21.2673 36.9925 20.7134 36.5728 20.0903 36.5728ZM18.8441 50.2159H3.26602V38.3569H18.8441V50.2159Z" fill="white"/>
<path d="M43.6997 36.5728H25.6984C25.0753 36.5728 24.5214 36.9925 24.5214 37.4648V51.1079C24.5214 51.5802 25.0753 52 25.6984 52H43.6997C44.3229 52 44.8768 51.5802 44.8768 51.1079V37.4648C44.8768 36.9925 44.3229 36.5728 43.6997 36.5728ZM42.5227 50.2159H26.8754V38.3569H42.4535L42.5227 50.2159Z" fill="white"/>
<path d="M67.3092 36.5728H49.3078C48.6847 36.5728 48.1308 36.9925 48.1308 37.4648V51.1079C48.1308 51.5802 48.6847 52 49.3078 52H67.3092C67.9323 52 68.4862 51.5802 68.4862 51.1079V37.4648C68.4862 36.9925 67.9323 36.5728 67.3092 36.5728ZM66.1322 50.2159H50.5541V38.3569H66.1322V50.2159Z" fill="white"/>
<path d="M34.6991 17.5249C34.076 17.5249 33.5221 17.9447 33.5221 18.417V27.7048H11.0897C10.4665 27.7048 9.91266 28.1245 9.91266 28.5968V34.159C9.91266 34.6313 10.4665 35.051 11.0897 35.051C11.7128 35.051 12.2667 34.6313 12.2667 34.159V29.5413H33.5221V34.159C33.5221 34.6313 34.076 35.051 34.6991 35.051C35.3222 35.051 35.8761 34.6313 35.8761 34.159V29.5413H57.1315V34.159C57.1315 34.6313 57.6854 35.051 58.3085 35.051C58.9316 35.051 59.4855 34.6313 59.4855 34.159V28.5968C59.4855 28.1245 58.9316 27.7048 58.3085 27.7048H35.8761V18.417C35.8761 17.9447 35.3222 17.5249 34.6991 17.5249Z" fill="white"/>
</svg>
