<svg width="83" height="108" viewBox="0 0 83 108" fill="none" xmlns="http://www.w3.org/2000/svg">
<path d="M46.5303 31.2873C51.5606 31.2873 55.7106 26.9673 55.7106 21.7309C55.7106 16.4946 51.5606 12.1746 46.5303 12.1746C41.5 12.1746 37.35 16.4946 37.35 21.7309C37.35 27.0982 41.3742 31.2873 46.5303 31.2873Z" fill="white"/>
<path d="M56.9682 46.4728C57.4712 46.3419 57.9742 46.8655 57.9742 47.3892L58.4773 52.2328H65.1424V47.3892C65.1424 39.2728 58.7288 32.5964 50.8061 32.5964C50.4288 32.5964 50.1773 32.8583 49.9258 33.1201L46.0273 40.9746L42.1288 33.1201C42.003 32.8583 41.6258 32.5964 41.3743 32.5964H41.2485C33.4515 32.5964 27.0379 39.2728 27.0379 47.3892V52.2328H33.9546L34.4576 47.3892C34.5833 46.7346 34.9606 46.3419 35.4636 46.4728C35.9667 46.6037 36.3439 47.1273 36.2182 47.651L35.7152 52.2328H56.7167L56.2136 47.651C56.0879 46.9964 56.4652 46.4728 56.9682 46.4728Z" fill="white"/>
<path d="M78.347 54.1963H3.5212C2.76666 54.1963 2.38939 54.9817 2.76666 55.6363L6.91666 62.1817C7.04242 62.4436 7.41969 62.5745 7.6712 62.5745H13.2045C13.2045 62.5745 13.2045 62.5745 13.2045 62.7054V83.2581C13.2045 83.7817 13.5818 84.1745 14.0848 84.1745C14.5879 84.1745 14.9651 83.7817 14.9651 83.2581V62.7054C14.9651 62.7054 14.9651 62.7054 14.9651 62.5745H22.6364C22.6364 62.5745 22.6364 62.5745 22.6364 62.7054V80.2472C22.6364 80.7708 23.0136 81.1636 23.5167 81.1636C24.0197 81.1636 24.397 80.7708 24.397 80.2472V62.7054C24.397 62.7054 24.397 62.7054 24.397 62.5745H55.8364C55.8364 62.5745 55.8364 62.5745 55.8364 62.7054V80.2472C55.8364 80.7708 56.2136 81.1636 56.7167 81.1636C57.2197 81.1636 57.597 80.7708 57.597 80.2472V62.7054C57.597 62.7054 57.597 62.7054 57.597 62.5745H65.3939C65.3939 62.5745 65.3939 62.5745 65.3939 62.7054V83.2581C65.3939 83.7817 65.7712 84.1745 66.2742 84.1745C66.7773 84.1745 67.1545 83.7817 67.1545 83.2581V62.7054C67.1545 62.7054 67.1545 62.7054 67.1545 62.5745H73.9454C74.197 62.5745 74.5742 62.4436 74.7 62.1817L78.85 55.6363C79.6045 54.9817 79.1015 54.1963 78.347 54.1963Z" fill="white"/>
<path d="M12.0727 48.9599C12.3242 41.2363 16.3485 34.6908 25.5288 30.7635C26.2833 32.0726 27.6667 32.8581 29.3015 32.8581C31.8167 32.8581 33.8288 30.7635 33.8288 28.1453C33.8288 25.5272 31.8167 23.4326 29.3015 23.4326C26.7864 23.4326 24.7742 25.5272 24.7742 28.1453C24.7742 28.4072 24.7742 28.669 24.9 28.9308C14.9651 33.1199 10.5636 40.4508 10.3121 48.829C8.29999 49.0908 6.66514 50.3999 5.78484 52.2326H16.6C15.5939 50.5308 14.0848 49.2217 12.0727 48.9599Z" fill="white"/>
</svg>
