<svg width="47" height="47" viewBox="0 0 47 47" fill="none" xmlns="http://www.w3.org/2000/svg">
<g clip-path="url(#clip0)">
<path d="M23.5008 46.9996C36.4793 46.9996 47.0006 36.4784 47.0006 23.4998C47.0006 10.5212 36.4793 0 23.5008 0C10.5222 0 0.000976562 10.5212 0.000976562 23.4998C0.000976562 36.4784 10.5222 46.9996 23.5008 46.9996Z" fill="#55ACEE"/>
<path d="M37.8947 16.8885C36.8877 17.335 35.8044 17.6371 34.6683 17.7719C35.8283 17.077 36.7184 15.9774 37.1386 14.6649C36.0532 15.3088 34.8505 15.7759 33.5716 16.0276C32.547 14.9364 31.0871 14.2544 29.4705 14.2544C26.3689 14.2544 23.8534 16.7699 23.8534 19.8715C23.8534 20.3118 23.9033 20.7403 23.9996 21.1517C19.3313 20.9175 15.1921 18.6814 12.4215 15.282C11.9381 16.1114 11.6607 17.077 11.6607 18.1062C11.6607 20.0546 12.6531 21.7746 14.1595 22.7816C13.2392 22.7527 12.3725 22.5001 11.6155 22.0783C11.6151 22.1022 11.6151 22.1261 11.6151 22.1495C11.6151 24.8711 13.5521 27.1412 16.1213 27.6569C15.6504 27.7859 15.1532 27.8542 14.6417 27.8542C14.2789 27.8542 13.9274 27.8194 13.5848 27.7541C14.2994 29.9851 16.3734 31.6092 18.832 31.6549C16.9092 33.1617 14.4875 34.0594 11.8551 34.0594C11.4027 34.0594 10.9545 34.033 10.5159 33.9807C13.0004 35.575 15.9537 36.5046 19.1256 36.5046C29.4575 36.5046 35.1077 27.9455 35.1077 20.5221C35.1077 20.2787 35.1023 20.0361 35.0914 19.7957C36.1898 19.004 37.142 18.0149 37.8947 16.8885Z" fill="#F1F2F2"/>
</g>
<defs>
<clipPath id="clip0">
<rect width="47" height="47" fill="white"/>
</clipPath>
</defs>
</svg>
