<svg width="38" height="47" viewBox="0 0 38 47" fill="none" xmlns="http://www.w3.org/2000/svg">
<path d="M21.9942 18.922C25.2078 18.922 28.2285 20.1595 30.4996 22.4103C32.7707 24.6612 34.025 27.6464 34.025 30.8263C34.025 34.0061 32.7744 36.995 30.4996 39.2422C28.2248 41.4894 25.2078 42.7305 21.9942 42.7305C18.7805 42.7305 15.7598 41.493 13.4887 39.2422C11.2176 36.9913 9.9633 34.0061 9.9633 30.8263C9.9633 27.6464 11.2139 24.6575 13.4887 22.4103C15.7635 20.1631 18.7805 18.922 21.9942 18.922ZM21.9942 41.6289C28.0133 41.6289 32.9117 36.782 32.9117 30.8263C32.9117 24.8705 28.0133 20.0236 21.9942 20.0236C15.975 20.0236 11.0766 24.8705 11.0766 30.8263C11.0766 36.782 15.975 41.6289 21.9942 41.6289Z" fill="black"/>
<path d="M21.4375 46.6514H22.5508V42.179H21.4375V46.6514Z" fill="black"/>
<path d="M21.4375 19.4727H22.5508V15.0003H21.4375V19.4727Z" fill="black"/>
<path d="M33.4684 31.376H37.9883V30.2744H33.4684V31.376Z" fill="black"/>
<path d="M5.99998 31.376H10.5199V30.2744H5.99998V31.376Z" fill="black"/>
<path d="M21.9942 26.8632C24.2022 26.8632 25.9983 28.6404 25.9983 30.8251C25.9983 33.0099 24.2022 34.7871 21.9942 34.7871C19.7862 34.7871 17.9901 33.0099 17.9901 30.8251C17.9901 28.6404 19.7862 26.8632 21.9942 26.8632ZM21.9942 33.6855C23.5899 33.6855 24.885 32.4041 24.885 30.8251C24.885 29.2462 23.5899 27.9648 21.9942 27.9648C20.3985 27.9648 19.1034 29.2462 19.1034 30.8251C19.1034 32.4041 20.3985 33.6855 21.9942 33.6855Z" fill="black"/>
</svg>
