<svg width="31" height="39" viewBox="0 0 31 39" fill="none" xmlns="http://www.w3.org/2000/svg">
<path d="M21.173 21.0918C20.801 21.747 20.398 22.371 19.995 22.9638C22.599 23.5566 24.149 24.5862 24.149 25.3662C24.149 26.5206 20.708 28.2678 15.5 28.2678C10.292 28.2678 6.85104 26.5206 6.85104 25.3662C6.85104 24.5862 8.40104 23.5878 11.005 22.9638C10.602 22.371 10.199 21.747 9.82704 21.0918C6.85104 21.8718 4.71204 23.2758 4.71204 25.3662C4.71204 28.6734 10.137 30.4206 15.5 30.4206C20.863 30.4206 26.288 28.6734 26.288 25.3662C26.288 23.2758 24.149 21.8718 21.173 21.0918Z" fill="#363030"/>
<path d="M16.461 24.4923C18.662 21.2163 23.932 13.0107 23.932 9.29787C23.932 4.58667 20.15 0.780273 15.5 0.780273C10.85 0.780273 7.03699 4.58667 7.03699 9.29787C7.03699 13.0107 12.338 21.2163 14.539 24.4923C15.004 25.1475 15.996 25.1475 16.461 24.4923ZM11.563 9.29787C11.563 7.11387 13.33 5.33547 15.5 5.33547C17.67 5.33547 19.437 7.11387 19.437 9.29787C19.437 11.4819 17.67 13.2291 15.5 13.2291C13.33 13.2291 11.563 11.4507 11.563 9.29787Z" fill="#363030"/>
</svg>
