<svg width="251" height="182" viewBox="0 0 251 182" fill="none" xmlns="http://www.w3.org/2000/svg">
<path d="M162.135 74.0135C162.225 73.8986 162.306 73.777 162.378 73.6497L178.073 57.9742C184.679 62.9164 224.584 94.3582 245.733 111.004C246.043 111.255 246.4 111.442 246.783 111.555C247.165 111.668 247.567 111.704 247.963 111.662C248.36 111.62 248.745 111.5 249.095 111.309C249.445 111.118 249.755 110.86 250.005 110.549C250.256 110.239 250.443 109.882 250.556 109.499C250.669 109.116 250.705 108.714 250.663 108.317C250.621 107.92 250.501 107.536 250.31 107.185C250.119 106.834 249.861 106.525 249.551 106.274C247.097 104.334 193.163 61.8249 182.467 53.6991L215.797 20.3471C216.081 20.0653 216.306 19.7299 216.46 19.3604C216.614 18.991 216.693 18.5947 216.693 18.1944C216.693 17.7941 216.614 17.3978 216.46 17.0284C216.306 16.6589 216.081 16.3235 215.797 16.0417L200.647 0.881683C200.079 0.31697 199.311 0 198.51 0C197.71 0 196.942 0.31697 196.374 0.881683L187.89 9.37128L183.588 5.06584C183.02 4.50113 182.252 4.18416 181.452 4.18416C180.651 4.18416 179.883 4.50113 179.315 5.06584L151.197 33.1725C150.633 33.7406 150.316 34.509 150.316 35.31C150.316 36.111 150.633 36.8795 151.197 37.4476L155.621 41.6621L142.804 54.3965H142.622V54.5784L108.929 88.3246C108.432 88.9046 108.173 89.6507 108.202 90.4138C108.232 91.1768 108.548 91.9007 109.087 92.4407C109.627 92.9807 110.35 93.297 111.113 93.3265C111.876 93.3559 112.621 93.0964 113.201 92.5997L144.804 60.9456L155.621 71.8305L115.716 111.701L113.989 110.913C107.441 107.482 100.17 105.663 92.7786 105.607C89.9304 105.607 87.264 105.607 84.7794 105.91C87.2895 103.35 89.3395 100.375 90.8394 97.1174C96.5358 94.4795 106.777 85.9899 108.201 79.5014C108.341 78.76 108.341 77.9991 108.201 77.2578C108.16 77.123 108.109 76.9913 108.05 76.8636C107.652 74.1752 106.919 71.5472 105.868 69.041C105.717 68.6727 105.495 68.3378 105.214 68.0555C104.934 67.7731 104.6 67.5488 104.233 67.3953C103.866 67.2419 103.472 67.1623 103.074 67.1612C102.676 67.16 102.282 67.2373 101.914 67.3886C101.546 67.5399 101.211 67.7623 100.929 68.043C100.647 68.3237 100.423 68.6573 100.269 69.0247C100.116 69.3922 100.037 69.7862 100.035 70.1844C100.034 70.5826 100.112 70.9771 100.263 71.3454C101.247 73.6764 101.89 76.1375 102.172 78.6525C101.657 81.4722 94.3239 88.2639 89.8092 90.9624C89.0146 89.2947 87.9951 87.744 86.7792 86.3538C86.5166 86.0531 86.1974 85.8072 85.8398 85.6301C85.4822 85.4529 85.0932 85.3479 84.6951 85.3212C84.297 85.2944 83.8975 85.3464 83.5194 85.4742C83.1414 85.6019 82.7922 85.8029 82.4918 86.0657C82.1913 86.3285 81.9456 86.6479 81.7685 87.0058C81.5915 87.3636 81.4866 87.7528 81.4599 88.1512C81.4331 88.5496 81.4851 88.9493 81.6128 89.3277C81.7404 89.7059 81.9413 90.0554 82.2039 90.356C83.5501 91.766 84.5102 93.4995 84.9915 95.3891C82.2654 99.8625 78.9422 103.943 75.1137 107.517C69.9115 108.406 65.1378 110.959 61.509 114.794C60.3415 114.698 59.256 114.155 58.479 113.278C57.2974 111.976 56.5646 110.328 56.3883 108.578C61.0883 99.3909 66.5088 90.5907 72.5988 82.2606L74.1744 80.9871C78.2381 78.0335 81.8161 74.4633 84.7794 70.4054C89.023 64.804 94.1382 59.9209 99.9294 55.9428C111.884 51.8452 124.09 48.5233 136.471 45.9978C137.275 45.9978 138.046 45.6784 138.614 45.1098C139.182 44.5412 139.501 43.77 139.501 42.9658C139.501 42.1617 139.182 41.3905 138.614 40.8219C138.046 40.2533 137.275 39.9338 136.471 39.9338C131.502 39.9338 100.778 48.7266 97.0812 50.5155C90.4548 54.9652 84.6347 60.5123 79.8708 66.9186C77.2359 70.404 74.0895 73.4706 70.5384 76.0146L68.8113 77.379C65.7813 79.8956 51.1161 103.879 50.6313 107.184C50.5141 108.97 50.7598 110.761 51.3535 112.449C51.9471 114.138 52.8765 115.688 54.0855 117.007C55.3239 118.396 56.9 119.44 58.6608 120.039C58.1686 121.765 57.9238 123.551 57.9336 125.345C58.2025 128.965 59.7116 132.382 62.2059 135.017L50.9343 146.084C50.6369 146.376 50.4027 146.725 50.2463 147.111C50.0899 147.497 50.0147 147.911 50.0253 148.328V151.178L40.2384 160.971C39.6741 161.539 39.3573 162.308 39.3573 163.109C39.3573 163.91 39.6741 164.678 40.2384 165.246L37.0266 168.46C36.3209 169.164 35.762 170 35.3822 170.921C35.0025 171.843 34.8096 172.83 34.8147 173.827C34.7647 174.331 34.7647 174.839 34.8147 175.343H3.03C2.22639 175.343 1.4557 175.662 0.887464 176.231C0.319229 176.8 0 177.571 0 178.375C0 179.179 0.319229 179.95 0.887464 180.519C1.4557 181.088 2.22639 181.407 3.03 181.407H42.42C43.4159 181.412 44.4029 181.219 45.3236 180.839C46.2443 180.459 47.0803 179.9 47.7831 179.194L50.9949 175.98C51.5626 176.544 52.3306 176.861 53.1311 176.861C53.9315 176.861 54.6995 176.544 55.2672 175.98L65.0541 166.186H67.9023C68.6824 166.183 69.4313 165.879 69.993 165.337L86.9004 149.025C87.227 148.701 87.4757 148.307 87.6276 147.873C92.0858 149.898 96.8096 151.276 101.657 151.966C103.656 151.966 106.383 152.178 109.565 152.421C112.11 152.633 115.049 152.846 118.2 152.997C117.973 154.632 117.608 156.245 117.11 157.818C116.174 159.934 114.604 161.708 112.618 162.892C110.631 164.076 108.325 164.613 106.02 164.428C105.435 164.434 104.853 164.352 104.293 164.185C103.322 162.039 102.59 159.791 102.111 157.484C101.914 156.704 101.416 156.035 100.725 155.622C100.035 155.21 99.2091 155.089 98.4296 155.286C97.6501 155.483 96.9807 155.982 96.5687 156.673C96.1568 157.364 96.0359 158.19 96.2328 158.97C96.7862 162.094 97.8727 165.099 99.4446 167.854C100.227 168.773 101.22 169.489 102.338 169.943C103.456 170.397 104.667 170.575 105.868 170.461H106.323C109.327 170.51 112.294 169.793 114.945 168.376C117.596 166.96 119.842 164.892 121.473 162.366C122.606 164.33 124.229 165.966 126.183 167.114C128.138 168.262 130.357 168.883 132.623 168.915H133.411C133.99 168.879 134.567 168.808 135.138 168.703C136.881 168.583 138.548 167.94 139.921 166.858C141.293 165.777 142.309 164.306 142.834 162.639C143.077 161.669 143.289 160.668 143.531 159.607C156.681 165.671 174.377 173.463 196.253 173.463C202.835 173.043 209.298 171.516 215.372 168.945C219.279 167.259 223.415 166.166 227.644 165.701C232.946 165.701 238.522 170.522 241.855 173.402C242.681 174.16 243.552 174.868 244.46 175.525C244.953 175.856 245.533 176.036 246.127 176.04C246.774 176.035 247.403 175.823 247.921 175.434C248.439 175.046 248.819 174.501 249.005 173.881C249.192 173.261 249.174 172.597 248.956 171.987C248.738 171.377 248.331 170.853 247.793 170.492C247.309 170.158 246.642 169.582 245.794 168.854C241.824 165.428 235.189 159.758 227.614 159.758C222.735 160.262 217.969 161.541 213.494 163.548C208.066 165.868 202.291 167.271 196.405 167.702C174.983 167.702 157.469 159.607 144.683 153.694C136.865 150.086 131.229 147.479 126.715 147.479C120.473 147.479 114.595 147.024 110.141 146.66C106.838 146.418 104.081 146.175 101.778 146.175C98.9295 146.175 88.4457 141.961 81.0222 138.898C81.1912 138.656 81.3239 138.391 81.4161 138.11C81.5979 137.595 81.81 137.079 82.0221 136.503C83.1763 134.186 83.8492 131.658 84.0003 129.074C84.1513 126.489 83.7773 123.9 82.9008 121.464C82.6115 120.712 82.0356 120.106 81.2997 119.779C80.5639 119.452 79.7283 119.431 78.977 119.721C78.2256 120.01 77.6199 120.587 77.2932 121.323C76.9664 122.059 76.9454 122.895 77.2347 123.647C77.8474 125.368 78.0965 127.196 77.9661 129.018C77.8357 130.839 77.3287 132.614 76.4772 134.229C76.2045 134.896 75.9621 135.533 75.7803 136.139C75.7698 136.28 75.7698 136.422 75.7803 136.564L71.205 134.684C68.5992 133.683 64.1148 128.62 64.1148 125.588C64.1148 121.828 64.1148 111.823 92.9301 111.823C99.4656 111.864 105.893 113.498 111.656 116.583C115.814 118.892 120.449 120.21 125.2 120.433C135.926 120.433 155.5 113.248 156.378 112.914C156.782 112.802 157.158 112.607 157.482 112.342C157.807 112.077 158.073 111.747 158.264 111.374C158.455 111.001 158.566 110.592 158.591 110.174C158.616 109.756 158.554 109.337 158.409 108.943C158.264 108.55 158.039 108.191 157.749 107.889C157.458 107.587 157.108 107.349 156.721 107.19C156.333 107.03 155.917 106.952 155.498 106.962C155.08 106.971 154.667 107.067 154.288 107.244C154.106 107.244 134.896 114.369 125.23 114.369C124.212 114.367 123.198 114.266 122.2 114.066L161.681 74.2561C161.839 74.1891 161.991 74.1079 162.135 74.0135ZM138.077 157.242C137.774 158.576 137.501 159.94 137.168 161.244C136.835 162.548 135.411 162.73 134.138 162.972H133.169C131.478 162.995 129.832 162.43 128.512 161.374C127.191 160.318 126.277 158.836 125.927 157.181L124.927 153.3H126.684C130.68 153.948 134.535 155.281 138.077 157.242ZM43.5108 175.009C43.3733 175.152 43.2086 175.266 43.0265 175.344C42.8444 175.422 42.6485 175.463 42.4503 175.464C42.0747 175.457 41.7164 175.305 41.4504 175.04C41.3084 174.899 41.1957 174.731 41.1188 174.546C41.0419 174.362 41.0023 174.164 41.0023 173.963C41.0023 173.763 41.0419 173.565 41.1188 173.38C41.1957 173.196 41.3084 173.028 41.4504 172.887L44.5713 169.612L46.7226 171.765L43.5108 175.009ZM53.1462 169.612L46.7226 163.185L53.1462 156.757L59.5698 163.185L53.1462 169.612ZM74.7198 142.719L81.9009 145.751L66.7509 160.304H65.0541L55.9641 151.208V149.571L66.6903 139.292C67.3679 139.746 68.0885 140.132 68.8416 140.445C70.1748 140.839 72.2655 141.718 74.7198 142.749V142.719ZM157.621 35.2039L181.285 11.524L183.436 13.6767L159.802 37.3566L157.621 35.2039ZM149.076 56.6705L198.344 7.33984L209.282 18.2854L159.954 67.525L149.076 56.6705Z" fill="white"/>
</svg>
