<svg width="44" height="38" viewBox="0 0 44 38" fill="none" xmlns="http://www.w3.org/2000/svg">
<path d="M41.9704 37.7773H1.27986C0.573729 37.7773 0 37.0572 0 36.171V1.60637C0 0.720096 0.573729 0 1.27986 0H41.9704C42.6766 0 43.2503 0.720096 43.2503 1.60637V36.2264C43.2503 37.0573 42.6766 37.7773 41.9704 37.7773ZM2.55971 34.62H40.7347V3.15734H2.55971V34.62Z" fill="#363131"/>
<path d="M1.76533 30.8535C1.41227 30.8535 1.10334 30.6319 0.926807 30.2442C0.617876 29.6349 0.750275 28.8594 1.23574 28.4717L17.3443 15.3991C17.6973 15.1222 18.0945 15.1222 18.4476 15.3991L28.863 23.6525C29.3484 24.0403 29.4808 24.8158 29.1719 25.4251C28.863 26.0344 28.2451 26.2006 27.7596 25.8128L17.8739 18.0026L2.29493 30.6319C2.1184 30.7981 1.94186 30.8535 1.76533 30.8535Z" fill="#363131"/>
<path d="M22.9933 21.1592C22.6402 21.1592 22.3313 20.9376 22.1548 20.5499C21.8458 19.9406 21.9782 19.1652 22.4637 18.7775L33.6293 9.86005C33.9383 9.58311 34.3796 9.58311 34.6885 9.86005L42.1029 15.6204C42.5883 16.0081 42.7207 16.7835 42.4559 17.3928C42.147 18.0021 41.5292 18.1682 41.0437 17.8359L34.1589 12.5187L23.5229 20.993C23.3464 21.1038 23.1698 21.1592 22.9933 21.1592Z" fill="#353030"/>
<path d="M28.2451 12.2412C26.4356 12.2412 24.9351 10.3579 24.9351 8.08691C24.9351 5.8159 26.4356 3.93262 28.2451 3.93262C30.0545 3.93262 31.5551 5.8159 31.5551 8.08691C31.5551 10.4133 30.0545 12.2412 28.2451 12.2412ZM28.2451 6.48059C27.539 6.48059 26.9652 7.20066 26.9652 8.08691C26.9652 8.97316 27.539 9.69324 28.2451 9.69324C28.9512 9.69324 29.5249 8.97316 29.5249 8.08691C29.5249 7.20066 28.9512 6.48059 28.2451 6.48059Z" fill="#363131"/>
</svg>
