<svg width="69" height="86" viewBox="0 0 69 86" fill="none" xmlns="http://www.w3.org/2000/svg">
<path d="M56.718 63.5713H4.83001C3.86401 63.5713 3.03601 64.3281 3.03601 65.3601C3.03601 66.3233 3.79501 67.1489 4.83001 67.1489H56.787C57.753 67.1489 58.581 66.3921 58.581 65.3601C58.512 64.3281 57.684 63.5713 56.718 63.5713Z" fill="white"/>
<path d="M7.24505 60.1311L11.316 57.7231L7.79705 54.1455L5.38205 58.2047C5.10605 58.6175 5.10605 59.1679 5.38205 59.5807C5.72705 60.2687 6.55505 60.4751 7.24505 60.1311Z" fill="white"/>
<path d="M31.2571 43.5504L42.2971 32.5424C42.2971 32.4736 42.1591 32.4048 42.1591 32.4048L33.1891 23.392C33.1201 23.392 33.0511 23.2544 33.0511 23.2544L22.0111 34.2624C14.2831 42.0368 9.59106 50.9808 9.59106 50.9808L14.5591 55.9344C14.5591 55.9344 23.5291 51.256 31.2571 43.5504Z" fill="white"/>
<path d="M63.894 14.0352L62.79 13.0032C64.515 10.1136 64.17 6.39839 61.6861 3.92159C58.788 1.03199 54.027 1.03199 51.129 3.92159L35.673 19.4016C35.259 19.8144 35.259 20.5024 35.673 20.9152L44.7121 29.928C45.126 30.3408 45.816 30.3408 46.23 29.928L59.754 16.4432L60.6511 17.3376C61.1341 17.8192 61.41 18.4384 61.41 19.1264C61.41 19.8144 61.1341 20.4336 60.6511 20.9152L50.784 30.6848C49.887 31.5792 49.887 33.024 50.784 33.9184C51.198 34.3312 51.819 34.6064 52.44 34.6064C52.992 34.6064 53.6131 34.4 54.0961 33.9184L63.894 24.08C65.205 22.7728 65.964 20.984 65.964 19.0576C65.964 17.1312 65.205 15.3424 63.894 14.0352Z" fill="white"/>
</svg>
