<svg width="38" height="48" viewBox="0 0 38 48" fill="none" xmlns="http://www.w3.org/2000/svg">
<g clip-path="url(#clip0)">
<path d="M6.99194 29.6448V8.33281H9.11994V6.29761H6.87794C5.81394 6.29761 4.93994 7.18081 4.93994 8.25601V29.76C4.93994 30.8352 5.81394 31.7184 6.87794 31.7184H16.5679C16.3019 31.104 16.0739 30.4128 15.9599 29.6832H6.99194V29.6448Z" fill="white"/>
<path d="M26.6379 20.544C27.3599 20.8128 28.0439 21.1584 28.6519 21.5808V8.25601C28.6519 7.18081 27.7779 6.29761 26.7139 6.29761H24.3579V8.33281H26.6379V20.544Z" fill="white"/>
<path d="M11.1719 14.8224H22.4199C22.7239 14.8224 22.9899 14.5536 22.9899 14.2464V13.3248C22.9899 13.0176 22.7239 12.7488 22.4199 12.7488H11.1719C10.8679 12.7488 10.6019 13.0176 10.6019 13.3248V14.2464C10.6399 14.5536 10.8679 14.8224 11.1719 14.8224Z" fill="white"/>
<path d="M11.1719 20.0065H22.4199C22.7239 20.0065 22.9899 19.7377 22.9899 19.4305V18.5089C22.9899 18.2017 22.7239 17.9329 22.4199 17.9329H11.1719C10.8679 17.9329 10.6019 18.2017 10.6019 18.5089V19.4305C10.6399 19.7761 10.8679 20.0065 11.1719 20.0065Z" fill="white"/>
<path d="M10.6399 23.7312V24.6528C10.6399 24.96 10.9059 25.2288 11.2099 25.2288H16.4539C16.7579 24.4992 17.1759 23.808 17.6319 23.1936H11.1719C10.8679 23.1552 10.6399 23.424 10.6399 23.7312Z" fill="white"/>
<path d="M11.3999 9.02396H22.1159C22.5339 9.02396 22.8759 8.67836 22.8759 8.25596V5.18396C22.8759 4.76156 22.5339 4.41596 22.1159 4.41596H20.3299C20.2539 2.49596 18.6579 0.959961 16.7579 0.959961C14.8579 0.959961 13.2619 2.49596 13.1859 4.41596H11.3999C10.9819 4.41596 10.6399 4.76156 10.6399 5.18396V8.25596C10.6399 8.67836 10.9819 9.02396 11.3999 9.02396ZM16.7579 3.22556C17.5179 3.22556 18.1259 3.83996 18.1259 4.60796C18.1259 5.37596 17.5179 5.99036 16.7579 5.99036C15.9979 5.99036 15.3899 5.37596 15.3899 4.60796C15.3899 3.83996 15.9979 3.22556 16.7579 3.22556Z" fill="white"/>
<path d="M32.376 34.2528L29.146 31.6032C29.754 30.6432 30.096 29.4912 30.096 28.3008C30.096 24.8832 27.36 22.1184 23.978 22.1184C20.596 22.1184 17.86 24.8832 17.86 28.3008C17.86 31.7184 20.596 34.4832 23.978 34.4832C25.194 34.4832 26.296 34.1376 27.246 33.5232L29.868 36.7872C29.944 36.864 30.02 36.9792 30.134 37.056C30.894 37.6704 31.996 37.5552 32.604 36.7872C33.25 36.0192 33.136 34.9056 32.376 34.2528ZM19.874 28.3008C19.874 25.9968 21.736 24.1536 23.978 24.1536C26.258 24.1536 28.082 26.0352 28.082 28.3008C28.082 30.6048 26.22 32.448 23.978 32.448C21.736 32.448 19.874 30.6048 19.874 28.3008Z" fill="white"/>
</g>
<defs>
<clipPath id="clip0">
<rect width="38" height="48" fill="white"/>
</clipPath>
</defs>
</svg>
